<?xml version="1.0" encoding="utf-8" ?><svg xmlns="http://www.w3.org/2000/svg" xmlns:xlink="http://www.w3.org/1999/xlink" width="1024" height="1024" viewBox="0 0 1024 1024"><path d="M517.541 192.795C693.522 195.826 833.902 340.624 831.479 516.615C829.057 692.605 684.746 833.485 508.748 831.672C331.887 829.85 190.165 684.676 192.599 507.822C195.033 330.968 340.696 189.749 517.541 192.795ZM512.125 694.83L671.038 694.904L720.46 694.976C730.022 694.993 739.665 695.229 749.207 694.589C752.128 694.393 753.163 693.895 755.348 691.951C758.771 688.905 755.843 682.579 753.93 679.037C749.722 671.247 745.198 663.455 740.956 655.58L699.683 578.938L573.072 339.634L538.396 273.5C531.694 260.613 523.657 243.097 515.155 231.083C514.763 230.529 511.23 230.042 510.422 229.98C508.403 231.076 506.417 232.327 505.236 234.346C499.485 244.181 494.025 255.313 488.824 265.418C477.953 286.695 466.962 307.909 455.85 329.06C411.028 415.454 365.421 501.439 319.036 587.005L285.795 648.476C279.057 660.72 271.11 673.586 265.862 686.493C264.473 689.91 265.974 693.203 269.282 694.512C277.049 695.362 285.415 695.069 293.284 695.081C313.291 695.128 333.299 695.056 353.306 694.867L512.125 694.83Z"/><path d="M415.847 499.22C420.758 498.263 429.7 501.411 433.571 504.192C440.052 508.884 444.307 516.044 445.331 523.979C447.637 542.016 435.012 555.303 417.456 557.198L396.294 595.999C391.977 603.96 386.363 613.891 382.875 622.067L492.816 622.024C499.457 617.233 512.629 613.29 519.581 616.879C532.633 623.618 541.731 622.081 556.438 622.037L614.195 621.973C619.402 621.918 623.987 621.374 629.137 621.065C631.592 620.917 637.757 622.727 639.758 621.486C636.681 612.384 628.305 597.537 623.902 588.727C618.725 578.369 613.852 567.884 608.712 557.552C601.431 557.334 595.703 557.117 589.203 553.061C583.29 549.331 579.119 543.385 577.626 536.555C573.938 520.457 582.704 504.149 599.675 501.026C607.718 499.502 616.036 501.323 622.707 506.068C638.179 517.122 637.553 535.321 626.983 549.539L657.539 610.549C658.71 610.857 661.713 610.337 663.013 610.145C679.117 607.763 693.061 617.715 695.808 633.764C697.204 641.674 695.35 649.814 690.667 656.34C686.164 662.559 679.365 666.724 671.78 667.911C663.978 669.16 655.998 667.276 649.578 662.67C641.668 656.882 639.295 650.144 637.938 641.014C605.872 640.563 573.39 641.231 541.295 641.177C541.312 642.251 541.295 643.326 541.245 644.399C540.314 662.847 527.891 676.018 509.114 674.62C501.144 674.038 493.747 670.26 488.604 664.144C482.433 656.739 482.297 649.919 483.012 640.999C472.9 641.476 459.197 641.01 448.865 640.993L385.811 641.048C385.678 641.785 385.524 642.518 385.348 643.246C381.382 659.964 366.359 671.447 348.951 667.115C341.328 665.181 334.822 660.225 330.934 653.389C317.92 630.92 338.481 602.399 366.295 610.686L383.995 577.586C388.631 568.991 393.822 559.75 397.805 550.896C391.524 545.173 386.991 537.646 386.592 528.992C386.253 521.489 388.95 514.165 394.075 508.674C399.91 502.445 407.466 499.577 415.847 499.22ZM513.256 659.062C520.899 658.262 526.456 651.433 525.685 643.787C524.915 636.141 518.107 630.558 510.458 631.3C502.768 632.046 497.149 638.898 497.924 646.585C498.698 654.272 505.572 659.865 513.256 659.062ZM419.701 541.249C427.164 539.316 431.626 531.676 429.642 524.226C427.659 516.777 419.989 512.367 412.553 514.401C405.188 516.415 400.829 523.996 402.794 531.375C404.758 538.753 412.309 543.163 419.701 541.249ZM668.363 652.799C673.246 652.263 677.464 649.141 679.405 644.628C681.345 640.114 680.708 634.905 677.737 630.993C674.765 627.08 669.919 625.067 665.05 625.724C657.65 626.722 652.428 633.485 653.335 640.897C654.242 648.309 660.94 653.614 668.363 652.799ZM359.504 651.79C366.862 650.121 371.456 642.783 369.742 635.436C368.028 628.089 360.662 623.54 353.325 625.299C346.053 627.043 341.552 634.331 343.251 641.615C344.95 648.898 352.21 653.443 359.504 651.79ZM606.749 542.439C614.108 541.769 619.569 535.32 619.017 527.951C618.464 520.583 612.104 515.019 604.727 515.453C599.849 515.74 595.505 518.634 593.361 523.026C591.217 527.417 591.607 532.623 594.381 536.645C597.156 540.668 601.883 542.883 606.749 542.439Z"/><path d="M510.471 308.158C513.134 308.262 515.624 308.392 518.258 308.899C537.205 312.546 546.563 334.645 537.339 351.214C534.837 355.708 532.437 357.98 528.723 361.428C531.279 368.077 535.501 376.413 538.639 382.947C544.485 395.286 550.584 407.503 556.931 419.591C563.106 419.022 568.752 418.822 574.729 420.883C581.814 423.362 587.605 428.586 590.799 435.379C597.543 449.882 591.307 469.206 576.073 475.342C561.915 481.045 542.944 475.328 537.227 460.325C533.378 450.224 535.709 441.096 539.82 431.629C530.943 414.505 522.127 394.496 512.741 378.22L511.667 376.752C509.565 377.631 486.06 425.97 483.668 430.784C490.605 444.606 490.245 458.4 477.711 468.966C471.812 474.04 464.111 476.512 456.361 475.822C448.806 475.245 441.804 471.642 436.942 465.83C424.322 450.676 429.473 426.469 448.99 420.269C455.556 418.184 460.807 418.893 467.425 419.911C470.49 411.994 475.454 402.371 479.193 394.64C484.372 383.737 489.622 372.868 494.945 362.034C488.011 356.233 483.823 350.501 482.893 341.199C481.07 322.976 492.392 309.544 510.471 308.158ZM567.253 462.348C574.94 460.752 579.857 453.2 578.204 445.525C576.552 437.849 568.963 432.99 561.3 434.699C553.718 436.391 548.919 443.883 550.555 451.478C552.19 459.073 559.646 463.926 567.253 462.348ZM513.257 351.272C520.919 350.388 526.421 343.471 525.558 335.806C524.695 328.142 517.792 322.622 510.125 323.464C502.43 324.31 496.884 331.244 497.75 338.938C498.616 346.631 505.566 352.159 513.257 351.272ZM461.725 460.17C468.843 458.594 473.334 451.544 471.752 444.427C470.171 437.31 463.117 432.825 456.001 434.413C448.894 435.998 444.415 443.043 445.995 450.151C447.575 457.26 454.616 461.744 461.725 460.17Z"/><path d="M506.322 479.731C533.863 477.226 530.001 490.059 529.673 511.073C529.483 523.241 534.551 539.335 519.028 544.366C515.219 544.971 511.102 545.377 507.248 545.016C503.861 544.698 499.532 543.491 497.357 540.633C494.49 536.864 495.059 500.397 495.439 493.667C495.656 489.841 496.144 486.126 496.813 482.356C500.925 479.934 501.705 479.953 506.322 479.731Z"/><path d="M508.151 554.708C519.47 552.532 530.418 559.915 532.643 571.224C534.869 582.533 527.535 593.513 516.236 595.789C504.866 598.079 493.801 590.689 491.562 579.309C489.322 567.929 496.761 556.897 508.151 554.708Z"/></svg>