<?xml version="1.0" encoding="utf-8" ?><svg xmlns="http://www.w3.org/2000/svg" xmlns:xlink="http://www.w3.org/1999/xlink" width="1024" height="1024" viewBox="0 0 1024 1024"><path d="M496.149 195.79C521.814 193.198 558.766 198.15 583.852 204.091C665.845 223.833 736.79 275.019 781.377 346.605C817.372 404.563 833.491 472.676 827.292 540.62C826.115 553.709 824.272 568.12 821.208 580.977C806.61 644.981 772.641 702.932 723.926 746.938C716.766 753.353 700.416 766.681 692.523 771.547L692.469 658.212C692.463 642.193 693.079 626.481 692.587 610.368C692.171 596.726 679.082 592.494 669.283 600.031C663.901 604.17 665.359 620.457 665.367 627.239L665.396 661.184C665.466 689.53 665.352 717.876 665.057 746.22C665.025 760.394 665.515 774.233 665.198 788.418C646.714 799.916 629.285 806.649 609.014 813.904L608.992 428.54C602.242 427.612 588.775 428.113 581.634 428.292C580.753 464.223 581.496 503.659 581.51 539.836L581.492 719.08C581.505 753.139 581.845 787.651 581.486 821.676C562.73 825.295 544.835 828.621 525.563 829.03C525.914 819.815 525.53 808.013 525.526 798.544L525.514 734.755L525.566 542.782L525.519 416.349L525.546 376.563C525.552 369.455 525.683 362.106 525.323 355.017C525.141 351.429 523.023 348.825 520.874 346.135C515.815 341.198 506.78 342.064 502.182 347.364C496.227 354.229 498.016 366.795 498.01 375.659L498.012 414.775L498.032 533.412L497.987 726.991C497.989 760.401 497.428 795.609 498.143 828.905C492.444 828.234 485.976 828.094 479.955 827.44C467.392 826.039 454.911 823.98 442.564 821.272L442.149 428.019C433.408 427.761 423.933 427.935 415.167 427.973C415.673 437.114 415.033 450.931 415.086 460.5L415.15 547.25L414.958 813.108C399.598 809.769 371.69 795.438 358.101 787.384C357.109 745.178 358.023 700.404 357.807 657.94C357.73 648.41 357.7 638.88 357.719 629.351C357.771 621.764 359.279 605.35 354.074 599.517C347.845 592.537 331.737 595.281 331.168 606.361C330.858 612.4 330.992 618.589 330.996 624.75L331.012 661.729C331.022 697.739 330.517 734.243 330.894 770.178C323.584 766.175 309.715 754.701 303.247 749.02C237.454 691.22 201.364 617.838 195.677 530.73C190.708 447.929 218.595 366.509 273.286 304.143C331.485 237.902 408.548 201.513 496.149 195.79Z"/><path fill="#AADCA8" d="M506.552 264.763C523.47 261.669 539.714 272.806 542.926 289.702C546.138 306.598 535.114 322.919 518.241 326.249C501.201 329.612 484.682 318.455 481.438 301.391C478.194 284.328 489.466 267.888 506.552 264.763Z"/><path fill="#AADCA8" d="M425.144 344.74C442.001 342.75 457.302 354.744 459.394 371.589C461.485 388.434 449.582 403.806 432.75 405.998C415.775 408.208 400.244 396.182 398.135 379.194C396.026 362.207 408.145 346.748 425.144 344.74Z"/><path fill="#AADCA8" d="M589.673 345.236C606.412 342.148 622.48 353.228 625.544 369.971C628.607 386.714 617.504 402.766 600.756 405.805C584.043 408.838 568.032 397.762 564.974 381.054C561.917 364.345 572.969 348.318 589.673 345.236Z"/><path fill="#AADCA8" d="M340.21 517.21C356.937 515.683 371.766 527.93 373.426 544.645C375.087 561.359 362.957 576.285 346.256 578.078C329.367 579.891 314.236 567.594 312.557 550.691C310.878 533.788 323.294 518.755 340.21 517.21Z"/><path fill="#AADCA8" d="M678.8 516.743C695.541 515.91 709.817 528.742 710.766 545.477C711.716 562.212 698.982 576.576 682.254 577.641C665.362 578.717 650.825 565.83 649.867 548.931C648.908 532.032 661.895 517.585 678.8 516.743Z"/></svg>