<?xml version="1.0" encoding="utf-8" ?><svg xmlns="http://www.w3.org/2000/svg" xmlns:xlink="http://www.w3.org/1999/xlink" width="1024" height="1024" viewBox="0 0 1024 1024"><path d="M497.704 212.269C508.138 211.372 521.762 211.978 532.233 212.704C585.91 216.26 637.644 234.177 682.023 264.579C750.513 311.335 793.542 379.197 808.84 460.436C800.266 460.716 791.41 460.591 782.809 460.571C780.81 450.054 778.137 437.511 774.386 427.467C771.95 420.946 767.881 418.16 761.709 415.698C759.795 414.934 757.378 414.629 755.271 414.615C738.773 414.512 722.235 414.574 705.737 414.641L619.668 414.859L577.168 414.582C570.033 414.553 558.366 414.21 551.503 415.509C546.465 416.462 538.171 428.543 533.313 432.211C528.537 435.816 528.277 436.075 522.396 438.633C486.316 447.393 488.33 417.157 469.193 415.239C458.945 414.212 448.232 414.755 437.935 414.759L383.22 414.793L304.913 414.794C297.149 414.788 262.462 413.355 257.532 416.689C245.929 424.536 242.762 447.264 239.956 460.95L213.523 460.556C225.865 401.559 248.841 352.774 290.131 308.234C344.043 250.239 418.598 215.77 497.704 212.269ZM269.314 383.158C271.386 391.663 275.176 396.248 284.43 396.605C295.003 397.013 305.49 396.359 316.062 396.287L378.251 396.122L431.091 396.115C441.119 396.167 462.934 398.023 471.666 395.402C491.032 389.588 488.946 364.398 521.873 373.257C538.949 378.931 538.364 390.521 553.326 395.796C555.57 396.588 572.018 396.173 575.791 396.128L603.571 396.069L682.951 395.806C700.206 395.898 717.492 396.648 734.789 396.223C746.222 395.942 750.124 395.041 755.184 383.616C749.992 371.485 742.909 362.179 734.98 351.742C703.68 310.135 661.572 277.907 613.234 258.562C576.966 244.041 543.55 238.736 504.759 239.232C491.913 239.89 478.17 240.812 465.483 243.005C404.009 253.897 347.901 284.917 305.984 331.184C294.457 343.936 273.144 366.817 269.314 383.158Z"/><path d="M782.987 563.348C791.739 563.602 800.496 563.679 809.251 563.578C808.364 570.814 805.142 582.58 803.209 589.598C792.23 630.377 772.816 668.399 746.223 701.205C743.851 704.892 730.599 718.656 727.255 722.042C687.593 761.982 637.512 789.981 582.715 802.849C504.307 821.514 421.698 808.38 352.945 766.316C332.263 753.589 313.154 738.465 296.016 721.259C248.348 674.021 228.805 628.281 213.683 564.011L239.997 563.76C240.253 563.878 240.509 563.996 240.765 564.115C242.337 570.556 244.106 579.746 245.94 585.835C247.674 591.596 248.671 594.942 251.279 599.416C253.943 603.987 258.698 607.511 263.543 608.318C271.515 609.646 280.26 609.076 288.286 609.044L326.302 609.016L410.589 608.989C425.771 608.999 440.945 609.349 456.128 608.98C460.931 608.864 466.626 609.025 471.257 607.804C481.418 605.125 486.295 592.76 495.098 587.327C500.003 584.3 505.744 582.9 511.474 582.802C537.074 582.363 538.063 604.515 552.598 607.963C563.65 610.584 580.787 608.937 592.59 608.949L675.732 608.994L729.712 608.988C739.464 609.02 749.405 609.192 759.153 608.965C761.469 608.86 764.949 607.353 766.786 606C777.685 597.976 780.116 575.792 782.987 563.348ZM693.964 716.651C705.542 706.874 752.727 656.2 754.049 643.059C754.404 639.527 753.162 636.062 750.872 633.381C746.614 628.397 740.173 627.603 734.018 627.304C723.911 626.813 713.575 627.469 703.44 627.538C682.491 627.722 661.542 627.773 640.593 627.692L582.916 627.56C574.654 627.549 565.881 627.179 557.686 627.538C553.288 627.731 547.891 630.36 544.863 633.374C533.954 644.236 528.934 654.112 511.292 653.176C501.057 652.632 493.128 648.964 486.238 641.099C477.955 631.644 475.57 628.137 462.374 627.663C437.505 626.768 412.83 627.647 387.881 627.472L320.329 627.298C311.763 627.323 301.521 626.83 293.137 627.256C286.682 627.581 277.078 626.713 272.653 632.011C265.376 640.727 274.969 653.663 279.855 660.862C296.576 685.489 317.156 707.26 340.805 725.337C398.784 770.843 472.458 791.47 545.637 782.684C599.215 775.806 653.236 752.371 693.964 716.651Z"/><path d="M648.261 478.618C659.836 476.943 672.416 482.188 678.478 492.238C680.348 495.337 682.269 498.766 684.522 501.568C697.716 506.004 755.023 503.689 771.753 503.564C785.681 503.577 799.608 503.727 813.533 504.015L813.522 520.544C803.648 521.312 783.977 520.414 773.18 520.298C744.761 519.754 716.333 519.863 687.919 520.623C682.29 523.859 681.077 528.51 677.662 533.797C669.493 546.446 653.882 550.391 640.158 544.931C626.782 539.61 622.342 521.49 606.759 521.156C594.248 520.889 581.494 521.033 568.889 521.024L492.604 520.939L441.92 520.832C437.069 520.826 417.97 520.675 414.39 521.508C399.464 524.983 398.329 540.064 380.584 543.762L379.937 543.891C361.522 548.162 349.743 539.532 339.071 526.001C337.154 523.571 331.893 520.928 328.743 520.672C315.62 519.602 302.189 520.016 288.997 520.018L209.608 520.09C209.359 514.81 209.447 509.311 209.452 504.01C240.023 503.354 270.869 504.573 301.321 503.578C316.522 503.081 333.87 508.077 343.126 493.665C348.159 485.828 356.305 481.21 365.373 479.474C387.124 475.712 394.524 488.427 407.326 500.341C413.433 506.026 460.776 503.883 469.859 503.818L539.722 503.965L586.114 504.006C592.708 504.018 605.881 504.361 612.048 503.354C620.681 501.944 627.968 485.939 636.971 482.061C642.591 479.639 642.033 479.8 648.261 478.618Z"/></svg>