<?xml version="1.0" encoding="utf-8" ?><svg xmlns="http://www.w3.org/2000/svg" xmlns:xlink="http://www.w3.org/1999/xlink" width="1024" height="1024" viewBox="0 0 1024 1024"><path d="M382.257 393.124C390.533 392.306 412.262 392.969 421.124 392.977L500.069 392.996L594.392 393.06C605.558 393.101 616.718 393.086 627.887 392.927C639.223 392.766 650.892 393.841 658.515 403.396C666.264 413.109 665.209 426.416 665.108 438.092L665.052 463.079C665.081 472.925 666.037 492.981 664.968 501.852C674.806 501.941 684.644 501.979 694.481 501.965C694.986 500.497 695.434 498.963 696.015 497.524C707.557 468.941 749.034 468.951 761.098 497.336C764.983 506.325 765.095 516.497 761.41 525.569C752.448 547.271 724.881 554.294 706.637 539.754C700.883 535.167 697.677 529.817 694.966 523.092C685.398 523.384 674.535 523.256 665 523.062C665.398 527.183 665.071 533.417 665.051 537.748L665.023 564.143C665.029 568.042 665.186 572.04 665.091 575.921C664.549 598.069 670.887 623.503 643.709 631.666C641.6 632.006 638.403 632.14 636.23 632.135C618.643 632.096 601.028 631.918 583.442 631.9L466.233 631.857C449.407 631.755 432.579 631.777 415.753 631.924C403.537 632.034 390.935 632.388 378.8 631.281C371.247 630.591 360.863 620.458 359.763 613.047C358.238 602.775 358.928 591.469 358.944 581.008L358.892 523.087C349.095 522.885 338.514 523.053 328.663 523.047C320.515 543.881 299.58 553.676 279.136 543.279C270.632 538.952 264.216 531.399 261.321 522.307C258.411 513.35 259.216 503.601 263.554 495.242C267.943 486.929 275.465 480.71 284.454 477.963C304.659 471.658 323.072 481.574 328.983 501.908C338.69 501.726 349.156 501.935 358.919 501.962C359.049 484.321 359.002 466.64 358.954 449.001C358.92 437.956 357.737 427.344 359.086 416.311C360.91 401.391 368.012 395.597 382.257 393.124ZM639.796 611.37C641.037 610.855 643.936 609.714 644.011 608.111C645.909 567.9 644.529 527.385 644.5 487.094L644.548 443.906C644.572 435.794 645.101 426.957 644.315 419.016C643.059 417.258 642.335 416.334 640.874 414.748C631.342 413.443 617.338 413.931 607.299 413.963L557.421 414.026L382.607 413.978C381.08 415.058 379.639 415.815 379.281 417.792C378.194 423.807 379.201 431.063 379.062 437.245C378.686 453.999 376.694 603.33 379.917 608.31C381.541 610.82 384.957 610.92 387.593 611.019C400.696 611.511 413.926 611.101 427.045 611.16L505.703 611.395C549.871 611.35 595.832 612.14 639.796 611.37Z"/><path d="M410.062 421.542C422.749 420.952 477.111 420.214 485.354 422.779C487.241 423.366 489.564 424.168 490.458 426.068C491.452 428.182 491.856 431.159 492.033 433.468C492.669 441.74 493.423 497.787 491.695 502.556C490.357 506.252 486.726 508.323 483.374 509.894C471.236 510.844 458.514 510.495 446.283 510.602C434.336 510.706 421.965 511.064 410.131 509.5C405.275 508.858 401.956 504.175 401.582 499.444C400.977 483.103 401.492 466.535 401.452 450.17C401.436 443.388 401.472 436.247 402.501 429.579C403.07 425.894 407.141 423.279 410.062 421.542Z"/><path fill="#6DABB8" d="M422.135 441.51L471.978 441.511L471.98 489.98L422.194 489.976C421.73 474.247 421.998 457.293 422.135 441.51Z"/><path d="M568.606 508.041C576.939 508.191 585.574 508.02 593.991 508.11L594.016 571.792C594.028 579.775 594.639 596.17 593.946 603.187L593.047 603.301C585.287 603.635 576.372 603.448 568.524 603.457L568.644 535.253C568.589 526.789 569.443 516.343 568.606 508.041Z"/><path d="M516.827 478.732C547.872 479.677 579.417 477.629 610.509 478.81C619.327 479.144 625.707 485.588 618.615 493.65C615.605 497.071 612.053 497.165 607.769 497.204C602.038 497.518 592.207 497.345 586.261 497.359C571.208 497.463 556.154 497.368 541.104 497.073C530.361 496.917 520.231 497.283 508.812 497.023C498.796 496.796 495.289 490.739 501.09 481.628C502.989 478.645 512.864 478.836 516.827 478.732Z"/><path d="M504.127 437.539L576.668 438C588.582 438.022 603.228 437.259 614.768 438.5C622.274 439.307 624.449 450.352 614.833 455.217C612.011 455.972 607.625 455.914 604.66 455.9C571.827 455.746 538.886 456.434 506.08 455.411C503.96 455.345 500.337 453.591 499.292 451.716C495.893 445.612 498.753 440.892 504.127 437.539Z"/><path d="M466.039 522.482C474.767 522.799 483.639 522.248 492.502 522.791C492.365 549.375 492.497 575.946 492.484 602.528C492.277 602.743 492.069 602.959 491.861 603.174C484.573 603.141 473.416 602.774 466.537 603.487C465.111 577.418 465.899 548.773 466.039 522.482Z"/><path d="M518.464 525.971L543.366 525.922C542.721 532.943 543.182 542.528 543.077 549.768C542.822 567.478 543.645 585.738 543.3 603.374C534.848 603.64 526.391 603.241 517.847 603.422C518.711 597.312 518.329 583.854 518.325 577.112C518.234 560.065 518.28 543.017 518.464 525.971Z"/><path d="M413.676 553.578C422.146 553.388 431.355 553.777 440.138 553.645C439.813 568.132 441.188 590.55 439.997 603.445C437.909 603.097 417.246 603.047 413.571 602.983C413.482 593.533 413.497 584.083 413.616 574.633C413.725 567.528 414.111 560.678 413.676 553.578Z"/><path d="M293.253 261.157C295.503 260.86 298.848 261.221 301.136 261.57C316.895 263.971 329.475 278.337 331.076 293.972C331.823 301.262 329.363 307.714 326.843 314.298C335.131 322.97 347.396 334.25 356.344 342.737C369.468 355.183 387.975 374.277 402.258 384.809C396.49 384.566 391.462 384.569 385.703 384.8C382.339 384.935 374.09 386.836 371.967 385.652C351.765 366.965 331.784 348.04 312.028 328.881C299.117 333.894 286.781 334.372 275.16 325.869C267.047 320.036 261.65 311.159 260.207 301.271C258.336 288.198 264.578 274.003 275.837 266.959C281.456 263.444 286.81 262.127 293.253 261.157Z"/><path d="M723.479 261.627C729.866 260.785 737.452 262.053 743.291 264.759C752.069 268.801 758.855 276.198 762.129 285.29C765.226 294.218 764.634 304.012 760.486 312.503C756.236 321.114 748.697 327.65 739.57 330.636C731.031 333.42 721.145 332.525 713.141 328.515C706.327 334.124 698.54 341.658 691.957 347.771C680.709 358.214 669.559 368.762 658.509 379.415C655.61 382.228 653.35 384.295 650.245 386.867C641.049 382.984 634.206 383.941 624.24 383.994C648.206 360.668 672.403 337.58 696.826 314.733C686.224 290.353 696.937 267.033 723.479 261.627Z"/><path d="M650.402 638.015C651.919 638.877 659.574 646.22 661.35 647.903C678.183 663.862 696.271 679.264 712.746 695.529C746.252 680.898 775.557 714.998 758.593 746.102C754.467 753.669 744.202 760.011 735.945 761.911C728.945 763.288 721.024 762.526 714.492 759.595C705.663 755.644 698.786 748.321 695.397 739.262C691.642 729.142 693.065 719.895 697.369 710.328C692.473 704.883 684.4 697.721 678.977 692.672L646.513 662.564C639.309 655.996 630.023 648.038 623.392 641.118C632.61 641.398 642.053 642.413 650.402 638.015Z"/><path d="M373.786 638.435C379.589 641.789 392.887 640.667 399.507 640.298C401.872 640.167 399.013 639.632 401.266 640.186C401.057 642.163 378.594 661.583 375.332 664.546L326.078 709.61C335.296 730.133 329.933 751.353 307.334 760.04C301.34 762.344 296.347 762.088 290.008 761.753C286.705 760.823 283.786 759.975 280.639 758.593C262.815 750.763 255.825 728.98 264.202 711.633C268.178 703.376 275.309 697.065 283.989 694.121C292.944 691.168 301.616 692.207 309.973 696.37C315.678 690.333 323.048 684.086 329.325 678.492L354.825 655.5C360.909 650.077 368.055 644.101 373.786 638.435Z"/></svg>