<?xml version="1.0" encoding="utf-8"?>
<svg xmlns="http://www.w3.org/2000/svg" width="1024" height="1024" viewBox="0 0 1024 1024">
  <!-- Calculator body -->
  <rect x="200" y="120" width="624" height="784" rx="48" ry="48" 
        fill="none" stroke="#FFFFFF" stroke-width="48"/>
  <!-- Display screen -->
  <rect x="280" y="200" width="464" height="140" rx="16" ry="16" 
        fill="#04BFA2" opacity="0.3" stroke="#04BFA2" stroke-width="24"/>
  <!-- Display numbers hint -->
  <text x="680" y="300" font-family="Space Grotesk, sans-serif" font-size="80" font-weight="700" fill="#04BFA2" text-anchor="end">123</text>
  <!-- Button grid - Row 1 -->
  <rect x="280" y="400" width="100" height="80" rx="12" fill="#FFFFFF" opacity="0.9"/>
  <rect x="410" y="400" width="100" height="80" rx="12" fill="#FFFFFF" opacity="0.9"/>
  <rect x="540" y="400" width="100" height="80" rx="12" fill="#FFFFFF" opacity="0.9"/>
  <rect x="670" y="400" width="74" height="80" rx="12" fill="#04BFA2"/>
  <!-- Button grid - Row 2 -->
  <rect x="280" y="510" width="100" height="80" rx="12" fill="#FFFFFF" opacity="0.9"/>
  <rect x="410" y="510" width="100" height="80" rx="12" fill="#FFFFFF" opacity="0.9"/>
  <rect x="540" y="510" width="100" height="80" rx="12" fill="#FFFFFF" opacity="0.9"/>
  <rect x="670" y="510" width="74" height="80" rx="12" fill="#04BFA2"/>
  <!-- Button grid - Row 3 -->
  <rect x="280" y="620" width="100" height="80" rx="12" fill="#FFFFFF" opacity="0.9"/>
  <rect x="410" y="620" width="100" height="80" rx="12" fill="#FFFFFF" opacity="0.9"/>
  <rect x="540" y="620" width="100" height="80" rx="12" fill="#FFFFFF" opacity="0.9"/>
  <rect x="670" y="620" width="74" height="190" rx="12" fill="#04BFA2"/>
  <!-- Button grid - Row 4 -->
  <rect x="280" y="730" width="230" height="80" rx="12" fill="#FFFFFF" opacity="0.9"/>
  <rect x="540" y="730" width="100" height="80" rx="12" fill="#FFFFFF" opacity="0.9"/>
</svg>
