<?xml version="1.0" encoding="utf-8" ?><svg xmlns="http://www.w3.org/2000/svg" xmlns:xlink="http://www.w3.org/1999/xlink" width="1024" height="1024" viewBox="0 0 1024 1024"><path d="M498.399 189.563L525.088 189.888C524.956 219.807 525.591 249.634 525.134 279.53C524.927 293.046 524.968 306.797 525.246 320.316C528.824 320.736 532.411 321.137 535.978 321.644C628.303 334.762 695.35 406.245 702.613 498.754C741.035 497.516 779.835 498.829 818.3 498.191C823.883 498.098 829.832 498.039 835.387 498.255C835.281 506.834 834.902 516.894 835.161 525.361C795.876 526.407 756.207 525.755 716.897 525.937C712.358 525.958 707.63 525.798 703.11 526.07L702.627 526.918C695.713 582.618 675.113 628.257 629.822 663.307C606.81 681.054 579.998 693.228 551.49 698.871C544.298 700.339 535.235 700.846 528.787 702.317L527.253 703.985C526.252 705.369 525.645 706.268 525.616 708.04C525.395 721.502 525.548 735.27 525.547 748.725L525.474 834.003L498.505 833.913C499.221 827.382 498.885 819.572 498.969 812.9C499.135 799.693 498.812 786.591 498.558 773.4C498.127 751.049 498.989 728.869 498.77 706.499C497.317 704.998 495.792 703.217 494.382 701.646C456.079 696.962 428.838 688.87 397.248 665.272C363.866 640.467 339.62 605.321 328.283 565.306C325.046 553.754 323.504 543.589 321.782 531.752C320.107 530.119 318.395 528.196 316.79 526.469C294.954 526.221 273.332 526.813 251.765 526.452C238.358 526.167 224.949 526.031 211.54 526.044C205.341 526.028 195.558 525.754 189.653 526.471C189.535 519.647 189.591 505.338 189.85 498.657C198.067 498.881 208.284 498.525 216.69 498.52L278.764 498.508C289.953 498.51 304.777 498.155 315.701 498.986C317.737 496.7 319.794 495.163 322.16 493.24C324.599 465.286 333.378 438.256 347.829 414.203C373.049 372.137 413.339 341.25 460.512 327.819C474.33 323.912 485.173 323.567 497.668 320.495L497.978 320.231C498.641 309.458 497.829 296.712 498.081 285.72C498.813 253.851 497.519 221.319 498.399 189.563ZM525.033 464.701C514.548 463.154 509.308 462.405 498.548 464.654C498.916 455.072 498.879 350.128 497.999 349.157C454.264 353.46 414.01 374.9 386.035 408.791C363.204 436.703 354.231 463.891 349.971 498.859L462.487 499.002C461.446 506.026 461.883 519.456 462.648 526.507C425.356 526.293 387.135 525.43 349.892 526.574C353.902 568.933 373.659 609.455 406.587 636.784C428.13 654.628 453.814 666.768 481.277 672.085C484.617 672.715 496.226 675.38 498.254 672.708C499.326 661.791 498.538 640.215 498.447 628.817L498.531 559.893C508.014 562.321 515.929 561.936 525.557 560.612L525.471 633.361C525.423 646.237 524.841 660.816 525.411 673.525C530.139 673.591 531.998 673.356 536.617 672.851C578.475 667.635 616.239 644.755 641.85 611.587C661.696 585.887 671.258 558.201 674.76 526.334C660.74 525.875 645.772 526.097 631.683 526.086C607.553 525.895 583.422 525.999 559.295 526.397C562.157 513.684 562.172 510.904 558.856 498.092C573.319 498.719 589.687 498.436 604.212 498.404L674.18 498.499C670.778 454.993 650.09 414.662 616.739 386.519C592.379 365.888 557.256 351.547 525.341 348.769C524.501 387.079 525.191 426.292 525.033 464.701Z"/><path fill="#04BFA2" d="M527.253 703.985C525.585 705.19 523.867 706.826 522.151 707.836C517.448 710.562 511.844 711.272 506.611 709.805C501.404 708.324 497.019 704.796 494.458 700.026C491.665 694.968 491.057 688.988 492.777 683.472C499.91 660.923 535.294 667.214 532.315 691.578C531.806 695.738 530.43 698.503 528.787 702.317L527.253 703.985Z"/><path fill="#04BFA2" d="M497.978 320.231C504.043 316.474 509.116 314.244 516.578 315.965C521.361 317.037 525.503 320.009 528.049 324.198C530.775 328.627 531.877 334.024 530.604 339.112C529.462 343.771 526.45 347.753 522.278 350.121C512.705 355.533 499.696 352.939 494.567 342.673C490.367 334.267 493.423 327.803 497.668 320.495L497.978 320.231Z"/><path fill="#04BFA2" d="M702.627 526.918C692.688 533.074 684.096 538.267 675.288 525.527C667.046 513.607 675.998 486.782 693.127 492.974C708.715 498.61 708.055 512.744 703.11 526.07L702.627 526.918Z"/><path fill="#04BFA2" d="M509.794 489.721C522.408 488.59 533.542 497.92 534.634 510.538C535.727 523.156 526.362 534.261 513.741 535.314C501.175 536.363 490.128 527.048 489.041 514.485C487.953 501.922 497.234 490.847 509.794 489.721Z"/><path fill="#04BFA2" d="M327.871 492.565C345.319 491.528 354.419 504.594 349.012 521.674C347.422 526.699 341.85 530.803 336.965 532.674C332.298 532.936 328.496 532.783 324.061 530.881C310.48 525.058 310.492 503.245 321.684 495.196C323.366 493.986 325.861 493.227 327.871 492.565Z"/><path d="M245.151 541.149C254.628 540.985 264.419 541.155 273.919 541.202C282.128 645.815 379.111 741.379 482.941 750.751C483.062 760.317 483.048 769.885 482.899 779.451C425.21 772.865 371.165 747.911 328.74 708.269C292.602 674.566 266.435 631.57 253.103 583.988C249.632 572.046 245.545 553.496 245.151 541.149Z"/><path d="M481.183 245.214L482.413 245.199C483.64 247.135 483.251 269.858 483.218 273.762C475.14 274.312 461.717 277.409 453.781 279.35C413.573 289.18 380.263 307.16 349.514 334.912C314.607 366.868 289.978 408.474 278.753 454.45C276.558 463.547 274.379 474.911 273.899 484.292C266.735 484.551 256.187 484.602 249.136 484.283C247.057 484.242 247.105 484.572 245.621 483.634C244.587 478.736 247.182 466.071 248.213 460.69C256.765 417.136 276.003 376.388 304.2 342.11C340.272 298.119 389.336 266.668 444.37 252.258C454.87 249.495 470.375 246.213 481.183 245.214Z"/><path d="M540.546 244.401C560.567 248.258 575.133 250.353 594.967 256.797C638.784 271.031 677.357 296.622 708.826 329.958C741.366 364.989 763.978 408.062 774.332 454.74C775.704 460.707 779.132 477.555 778.968 483.333C769.273 483.283 759.579 483.292 749.885 483.36C744.935 436.844 725.961 392.932 695.48 357.448C662.964 319.114 619.346 291.825 570.651 279.352C561.94 277.151 549.467 274.531 540.523 273.86L540.546 244.401Z"/><path d="M750.671 540.5C760.174 541.012 769.628 540.623 779.189 540.984C774.382 582.022 760.452 621.464 738.421 656.419C699.124 719.166 636.315 759.263 564.903 775.69C556.891 777.29 548.854 778.759 540.794 780.099C541.341 771.795 540.959 759.445 540.897 750.827C581.759 745.872 623.254 728.417 656.235 704.066C699.395 672.072 730.38 626.34 744.092 574.394C747.249 562.596 748.852 552.532 750.671 540.5Z"/></svg>