<?xml version="1.0" encoding="utf-8" ?><svg xmlns="http://www.w3.org/2000/svg" xmlns:xlink="http://www.w3.org/1999/xlink" width="1024" height="1024" viewBox="0 0 1024 1024"><path d="M511.375 232.427C514.137 233.694 516.581 235.046 519.239 236.496C540.136 247.903 560.302 260.524 580.929 272.405L755.999 375.01C755.171 407.764 755.96 444.351 755.961 477.305L755.996 650.64C731.376 663.601 705.12 679.922 681.019 694.159L571.968 757.807C558.513 765.761 545.002 773.619 531.436 781.381C525.236 784.916 518.212 789.145 511.874 792.242C503.051 788.077 487.602 778.525 478.624 773.329C456.65 760.625 434.74 747.81 412.895 734.885C364.802 706.469 315.107 678.597 267.536 649.743C268.183 638.744 267.981 626.861 267.985 615.785L267.975 564.855C267.362 501.151 267.224 437.442 267.562 373.736C340.15 333.827 411.013 289.655 483.081 248.739C492.542 243.368 501.771 237.555 511.375 232.427ZM301.785 392.363C300.984 400.366 301.531 419.136 301.537 427.789L301.586 497.794L301.648 588.14C301.668 599.676 301.08 620.542 301.828 631.489C322.827 644.348 345.702 657.03 367.076 669.458L468.154 728.385C477.113 733.568 486.036 738.812 494.923 744.116C498.148 746.034 509.145 752.891 512.209 753.731C529.685 744.066 547.518 733.198 564.831 723.09L667.262 663.508C678.085 657.278 688.856 650.959 699.575 644.55C706.423 640.487 714.421 635.494 721.479 632.105C720.903 612.561 721.343 591.227 721.393 571.544L721.247 470.399C721.286 444.819 721.817 417.797 720.997 392.332L584.024 312.157C576.968 308.007 515.58 271.126 511.567 270.947C499.074 276.46 486.963 284.281 475.147 291.295L423.168 321.923L353.992 361.993C338.744 370.656 316.254 382.812 301.785 392.363Z"/><path d="M511.939 307.923C523.607 314.333 537.875 322.7 549.364 329.526L549.51 374.462C534.098 382.783 507.331 394.073 527.312 418.068C533.84 425.907 549.145 432.317 558.078 438.214C566.497 443.771 579.02 452.241 589.496 452.873C615.489 451.512 613.73 429.156 613.149 412.321C625.828 404.86 639.229 396.277 651.832 389.226C655.562 390.991 659.054 393.561 662.598 395.681C670.862 400.622 680.447 407.299 689.011 411.486C689.075 423.782 688.509 440.853 689.404 452.638C676.919 460.441 664.523 467.45 652.169 475.759C639.705 467.642 625.42 455.592 611.25 464.953C606.519 468.079 599.206 475.022 598.82 480.838C597.483 500.968 597.651 522.035 598.791 542.169C599.214 545.087 600.321 548.143 602.005 550.514C618.24 573.357 634.805 560.688 651.857 548.679C665.124 556.674 675.133 563.953 689.381 571.718C688.612 581.208 688.822 603.727 689.38 613.385C676.197 621.322 665.407 626.964 652.383 635.836C640.386 629.057 626.351 620.002 614.306 612.782C614.531 605.63 615.06 598.323 613.876 591.258C611.88 577.789 596.678 569.692 583.885 573.379C569.197 577.611 556.114 589.079 542.517 596.085C538.744 598.028 534.758 600.803 531.297 603.352C523.369 609.194 519 618.438 521.878 628.28C525.248 638.385 540.845 645.736 549.692 650.152C548.835 664.151 549.236 680.614 549.503 694.693C545.722 697.327 539.179 701.018 534.961 703.514C527.98 707.644 518.757 713.393 511.405 716.708C499.216 709.78 487.354 701.861 474.707 694.81C475.441 684.951 475.157 660.233 474.625 650.223C481.821 646.541 488.621 643.034 495.227 638.269C504.818 631.35 506.309 616.938 498.056 608.434C490.022 600.157 477.22 594.137 467.253 588.031C452.268 578.852 432.71 562.805 416.318 578.806C408.066 586.818 410.152 602.001 410.208 612.672C400.392 619.753 383.226 628.579 372.217 635.17C368.667 633.146 364.636 630.308 360.977 628.126L334.51 612.472C335.427 603.679 335.071 579.73 334.606 570.486C346.495 563.318 359.291 554.502 371.445 548.016C382.827 555.364 399.577 568.062 412.672 560.275C420.997 556.437 426.506 544.175 425.588 534.499C423.529 512.796 435.622 468.595 406.424 461.238C396.317 458.691 379.934 470.727 371.484 475.958C359.533 468.707 347.117 460.402 334.933 452.922C334.457 439.415 335.253 423.687 334.509 411.005C346.812 403.83 359.791 397.416 371.514 389.134C375.021 390.616 380.743 394.283 384.197 396.253C392.826 401.172 401.408 406.588 410.107 411.355C409.783 425.283 406.825 440.753 421.819 448.703C438.064 457.253 454.195 444.635 467.829 436.648C479.215 429.98 494.529 423.886 501.082 411.717C503.783 406.702 503.961 399.394 501.754 394.224C497.822 385.016 483.177 378.818 474.866 374.707C474.938 361.47 475.517 342.378 474.63 329.647C485.002 322.52 500.762 314.042 511.939 307.923ZM510.551 434.73C498.96 435.341 488.5 443.077 478.665 448.869C467.149 455.652 444.259 464.909 442.305 480.18C439.975 498.397 441.114 518.445 441.492 536.874C441.689 545.162 445.77 554.78 452.5 559.656C466.524 569.816 484.941 581.553 501.032 588.017C505.023 589.62 509.27 589.967 513.268 589.958C517.791 589.415 520.64 588.753 524.887 586.826C534.404 582.508 542.606 577.063 551.529 571.463C561.476 565.22 578.77 557.985 580.661 544.695C581.831 536.472 581.118 527.488 581.324 519.172C580.957 507.123 582.088 494.759 581.036 482.783C580.419 475.764 576.516 469.244 570.698 465.271C557.616 456.337 543.642 448.227 529.966 440.208C524.784 437.169 516.608 434.161 510.551 434.73ZM634.122 582.488C634.085 588.833 633.923 595.629 634.035 601.937C637.198 603.977 651.189 613.181 653.64 612.584C659.423 609.181 664.701 606.046 670.292 602.345C669.888 597.103 670.275 588.45 670.388 582.949C666.559 580.525 654.405 572.56 650.644 572.936C645.49 575.88 639.041 579.35 634.122 582.488ZM354.544 422.506C354.737 428.621 354.779 434.741 354.672 440.858C359.814 445.801 365.529 450.632 373.193 450.46C373.541 450.451 373.888 450.434 374.235 450.41C381.53 448.942 385.382 446.462 390.552 441.206C390.434 435.061 390.365 428.916 390.344 422.77L389.725 422.453C381.005 417.879 380.6 413.99 370.439 413.967C364.239 416.093 360.025 419.022 354.544 422.506ZM634.308 442.773C638.029 444.959 649.28 451.953 652.714 452.331C658.303 449.607 664.277 445.961 669.574 442.634C669.58 436.123 669.693 429.094 669.45 422.62C665.643 420.267 654.66 412.957 650.608 412.973C645.062 416.142 639.625 419.498 634.306 423.035C634.066 428.877 633.862 436.935 634.308 442.773ZM512.313 331.433C506.618 334.503 500.61 337.549 495.284 341.189C494.896 348.07 494.995 355.266 494.988 362.187C500.098 365.424 507.068 369.962 512.532 372.485C518.043 369.053 523.782 365.321 529.49 362.28C529.392 356.004 528.983 347.13 529.264 341.054C526.193 339.156 515.298 332.286 512.313 331.433ZM390.439 599.808C390.453 594.685 390.596 588.272 390.272 583.239C384.393 576.696 379.461 573.914 370.492 573.083C355.718 578.093 353.169 583.415 354.176 598.97C358.086 604.036 362.552 608.812 369.28 609.782C370.891 610.01 372.524 610.034 374.142 609.854C382.251 608.392 384.945 605.493 390.439 599.808ZM494.545 681.208C500.38 688.388 504.161 691.699 514.103 691.503C520.535 689.367 524.771 685.92 529.991 681.644C529.979 676.13 530.085 671.059 529.447 665.569L529.373 664.893L529.322 664.489C525.213 658.822 518.769 653.522 511.313 654.118C504.735 655.181 499.994 657.336 496.042 662.997C495.513 663.767 495.011 664.555 494.539 665.361C494.205 671.038 494.363 675.537 494.545 681.208Z"/></svg>