<?xml version="1.0" encoding="utf-8"?>
<svg xmlns="http://www.w3.org/2000/svg" width="1024" height="1024" viewBox="0 0 1024 1024">
  <!-- Lightning bolt - optimized for dark backgrounds -->
  <!-- Main lightning bolt shape -->
  <path fill="#FFFFFF" d="M618.323 281.892C619.626 279.627 623.639 275.089 625.522 272.942C620.467 283.745 614.766 294.181 609.581 304.897L580.464 366.306C563.088 402.113 543.634 441.431 528.146 478.022C557.683 477.842 587.22 477.838 616.756 478.012C631.847 478.088 651.427 479.13 665.931 477.83C660.662 482.45 655.024 487.573 649.547 491.856C631.985 507.127 610.479 529.688 593.861 546.671L532.87 608.114L450.376 692.164C434.205 708.902 412.471 730.583 398.622 749.101C400.372 745.187 402.203 741.308 404.111 737.468C405.338 732.471 410.064 723.363 412.448 718.359C439.494 661.583 466.387 604.877 491.65 547.272C446.929 548.051 401.321 546.359 356.653 548.113C358.456 546.285 360.381 544.556 362.271 542.814C369.901 535.868 378.69 526.885 386.2 519.511C402.436 503.728 418.543 487.812 434.517 471.763L516.688 390.625C538.109 369.051 559.609 346.409 579.947 323.811C592.603 309.75 604.814 295.175 618.323 281.892Z"/>
  <!-- Accent lightning highlights -->
  <path fill="#00D4AA" d="M362.271 542.814C367.412 543.176 375.288 542.716 380.763 542.637L411.39 542.498C440.114 542.451 470.736 543.141 499.29 542.148C487.616 568.58 415.315 729.314 404.111 737.468C405.338 732.471 410.064 723.363 412.448 718.359C439.494 661.583 466.387 604.877 491.65 547.272C446.929 548.051 401.321 546.359 356.653 548.113C358.456 546.285 360.381 544.556 362.271 542.814Z"/>
  <path fill="#00D4AA" d="M618.323 281.892C619.626 279.627 623.639 275.089 625.522 272.942C620.467 283.745 614.766 294.181 609.581 304.897L580.464 366.306C563.088 402.113 543.634 441.431 528.146 478.022C557.683 477.842 587.22 477.838 616.756 478.012C631.847 478.088 651.427 479.13 665.931 477.83C660.662 482.45 655.024 487.573 649.547 491.856C650.85 487.829 654.732 485.29 658.045 482.488C647.329 482.495 526.517 483.072 523.653 481.186C522.616 475.061 543.331 434.51 547.521 425.548C563.715 390.384 580.541 355.516 597.991 320.959C601.514 313.962 605.116 307.006 608.797 300.092C610.961 296.092 617.606 285.687 618.323 281.892Z"/>
  <!-- Network nodes -->
  <circle fill="#FFFFFF" cx="422" cy="300" r="28"/>
  <circle fill="#FFFFFF" cx="672" cy="345" r="28"/>
  <circle fill="#FFFFFF" cx="593" cy="590" r="28"/>
  <circle fill="#FFFFFF" cx="344" cy="330" r="28"/>
  <circle fill="#FFFFFF" cx="540" cy="660" r="28"/>
  <circle fill="#FFFFFF" cx="430" cy="590" r="28"/>
  <circle fill="#FFFFFF" cx="296" cy="410" r="28"/>
  <circle fill="#FFFFFF" cx="346" cy="580" r="28"/>
  <circle fill="#FFFFFF" cx="642" cy="540" r="28"/>
  <circle fill="#FFFFFF" cx="723" cy="403" r="28"/>
  <circle fill="#FFFFFF" cx="741" cy="490" r="28"/>
  <circle fill="#FFFFFF" cx="280" cy="490" r="28"/>
  <circle fill="#FFFFFF" cx="509" cy="265" r="28"/>
  <circle fill="#FFFFFF" cx="509" cy="720" r="28"/>
  <!-- Accent center node -->
  <circle fill="#00D4AA" cx="512" cy="512" r="36"/>
</svg>
