<?xml version="1.0" encoding="utf-8" ?><svg xmlns="http://www.w3.org/2000/svg" xmlns:xlink="http://www.w3.org/1999/xlink" width="1024" height="1024" viewBox="0 0 1024 1024"><path d="M618.323 281.892C619.626 279.627 623.639 275.089 625.522 272.942C620.467 283.745 614.766 294.181 609.581 304.897L580.464 366.306C563.088 402.113 543.634 441.431 528.146 478.022C557.683 477.842 587.22 477.838 616.756 478.012C631.847 478.088 651.427 479.13 665.931 477.83C660.662 482.45 655.024 487.573 649.547 491.856C631.985 507.127 610.479 529.688 593.861 546.671L532.87 608.114L450.376 692.164C434.205 708.902 412.471 730.583 398.622 749.101C400.372 745.187 402.203 741.308 404.111 737.468C405.338 732.471 410.064 723.363 412.448 718.359C439.494 661.583 466.387 604.877 491.65 547.272C446.929 548.051 401.321 546.359 356.653 548.113C358.456 546.285 360.381 544.556 362.271 542.814C369.901 535.868 378.69 526.885 386.2 519.511C402.436 503.728 418.543 487.812 434.517 471.763L516.688 390.625C538.109 369.051 559.609 346.409 579.947 323.811C592.603 309.75 604.814 295.175 618.323 281.892Z"/><path fill="#066FD1" d="M362.271 542.814C367.412 543.176 375.288 542.716 380.763 542.637L411.39 542.498C440.114 542.451 470.736 543.141 499.29 542.148C487.616 568.58 415.315 729.314 404.111 737.468C405.338 732.471 410.064 723.363 412.448 718.359C439.494 661.583 466.387 604.877 491.65 547.272C446.929 548.051 401.321 546.359 356.653 548.113C358.456 546.285 360.381 544.556 362.271 542.814Z"/><path fill="#066FD1" d="M618.323 281.892C619.626 279.627 623.639 275.089 625.522 272.942C620.467 283.745 614.766 294.181 609.581 304.897L580.464 366.306C563.088 402.113 543.634 441.431 528.146 478.022C557.683 477.842 587.22 477.838 616.756 478.012C631.847 478.088 651.427 479.13 665.931 477.83C660.662 482.45 655.024 487.573 649.547 491.856C650.85 487.829 654.732 485.29 658.045 482.488C647.329 482.495 526.517 483.072 523.653 481.186C522.616 475.061 543.331 434.51 547.521 425.548C563.715 390.384 580.541 355.516 597.991 320.959C601.514 313.962 605.116 307.006 608.797 300.092C610.961 296.092 617.606 285.687 618.323 281.892Z"/><path d="M422.627 277.625C431.74 277.247 439.393 281.003 443.728 289.233C446.654 294.681 447.202 301.094 445.245 306.959C442.707 314.357 438.477 317.432 432.011 320.721C431.879 331.456 431.534 341.481 432.66 352.2C440.579 364.549 464.141 354.789 475.516 359.579C481.087 361.925 490.098 372.406 494.824 377.267C492.178 379.551 489.632 382.307 487.191 384.838C486.347 385.757 485.607 386.449 484.709 387.304C482.801 385.776 476.382 373.835 472.347 369.992C440.968 368.384 416.874 378.613 420.51 334.978C420.833 331.107 420.646 325.512 420.743 321.415C411.819 318.941 404.03 312.051 402.363 302.641C401.4 297.28 402.609 291.757 405.723 287.289C409.8 281.54 415.841 278.659 422.627 277.625Z"/><path d="M672.407 328.165C682.103 326.243 692.291 331.817 696.204 340.922C698.547 346.434 698.618 352.648 696.401 358.212C690.573 372.735 676.83 374.024 663.876 368.642C655.79 377.369 646.196 386.512 637.687 394.937C625.693 406.831 613.765 418.792 601.905 430.82C599.134 433.636 594.622 438.445 591.474 440.499C588.909 438.007 586.192 435.51 583.583 433.048C587.79 427.9 593.71 421.962 598.527 417.323C617.946 398.621 636.418 378.626 655.786 359.953C650.993 344.866 655.482 331.178 672.407 328.165Z"/><path d="M593.495 584.747C595.853 586.049 610.014 600.647 612.646 603.285C630.32 620.902 647.861 638.653 665.266 656.536C669.624 654.401 673.822 653.208 678.739 653.711C684.553 654.262 689.891 657.159 693.522 661.734C697.442 666.674 699.149 673.015 698.238 679.256C697.262 686.089 693.662 690.489 688.36 694.479C687.55 694.948 686.718 695.411 685.863 695.793C679.945 698.451 673.194 698.556 667.196 696.083C661.796 693.822 657.514 689.509 655.292 684.092C652.379 676.899 653.64 671.409 656.369 664.668C633.067 640.427 609.516 616.428 585.717 592.675L593.495 584.747Z"/><path d="M343.882 327.124C348.184 326.542 352.711 326.881 356.761 328.505C362.204 330.689 366.525 334.991 368.731 340.425C371.597 347.565 370.15 353.301 367.218 359.895C370.505 362.492 374.541 366.906 377.564 369.983L393.652 386.225C408.525 401.28 423.862 416.132 438.583 431.218C436.162 434.107 433.353 436.823 430.685 439.499C428.634 437.855 426.525 435.672 424.621 433.814L359.098 367.936C351.736 371.195 344.123 372.522 336.758 368.29C331.609 365.265 327.883 360.307 326.411 354.519C322.986 341.104 330.562 329.957 343.882 327.124Z"/><path d="M540.358 640.316C543.281 641.274 551.95 651.09 554.898 653.957C603.169 654.281 601.871 654.487 602.051 702.113C605.441 702.729 608.855 703.763 611.764 705.642C616.59 708.81 619.877 713.846 620.835 719.538C621.874 725.707 620.36 732.034 616.641 737.065C612.76 742.293 607.405 744.641 601.161 745.667C598.902 745.506 595.888 745.342 593.748 744.777C588.117 743.293 583.303 739.64 580.358 734.616C573.516 722.797 578.883 710.618 590.039 704.118C590.206 698.014 590.419 691.873 590.502 685.769C590.623 676.824 590.942 671.302 582.833 666.083C574.807 665.279 560.037 665.918 550.588 665.433C546.483 662.854 534.961 651.915 532.131 647.778C534.986 645.022 537.302 642.829 540.358 640.316Z"/><path d="M429.879 585.822C432.671 587.748 435.966 591.762 438.067 594.467C434.749 598.471 423.609 608.106 419.136 612.713C402.659 629.683 383.027 647.441 367.534 665.092C376.824 686.359 360.102 703.715 338.104 695.623C327.968 689.879 323.168 679.227 327.19 667.974C329.167 662.492 333.293 658.052 338.616 655.68C345.767 652.527 351.831 653.944 358.656 656.528C383.017 632.918 405.823 609.624 429.879 585.822Z"/><path d="M642.312 538.537C661.204 538.085 666.905 538.802 665.809 560.525C665.591 564.841 665.401 569.603 665.214 573.956C685.798 573.737 690.072 573.978 707.428 587.469C712.047 582.908 716.084 579.92 722.894 579.119C728.82 578.436 734.772 580.149 739.427 583.879C743.942 587.45 746.779 592.728 747.267 598.463C747.913 605.66 745.769 610.495 741.393 615.846C729.765 627.137 712.091 623.906 705.399 608.817C703.921 605.484 703.959 602.15 703.907 598.572C696.063 594.109 690.721 589.028 681.899 586.201C675.423 584.127 659.202 587.449 656.188 583.972C651.349 578.389 653.277 554.29 653.49 546.651C647.447 546.976 641.377 546.158 635.21 546.857C637.667 543.64 639.544 541.442 642.312 538.537Z"/><path d="M295.951 403.144C311.137 401.687 317.758 410.973 320.591 424.319C329.668 429.787 336.697 439.116 347.696 438.886C350.581 438.826 361.776 438.418 363.967 438.857C377.288 441.528 364.764 465.067 372.073 473.641C377.063 479.496 382.725 479.841 389.59 480.971C381.326 490.277 378.177 493.494 366.788 485.515C356.866 475.827 357.46 463.351 358.958 450.52C328.367 449.695 341.133 450.707 317.066 436.208C313.018 440.377 309.49 443.648 303.602 445.203C298.042 446.696 292.113 445.811 287.232 442.759C282.235 439.656 278.71 434.658 277.464 428.91C274.663 415.541 283.021 405.522 295.951 403.144Z"/><path d="M345.937 577.284C351.228 577.07 381.083 575.761 368.205 587.861C365.171 590.711 345.737 589.537 340.791 589.208C333.624 594.851 328.556 598.813 320.713 603.52C316.027 617.714 305.712 624.706 290.835 620.096C274.229 612.044 271.587 591.418 286.979 581.431C291.802 578.239 297.713 577.14 303.36 578.385C310.838 580.07 315.163 585.1 318.946 591.216C330.107 583.307 332.428 577.63 345.937 577.284Z"/><path d="M722.807 402.61C724.515 402.485 727.04 402.734 728.75 402.979C734.277 403.765 739.257 406.74 742.571 411.234C759.679 434.801 724.542 463.645 705.058 434.148C698.912 437.268 690.523 441.004 684.154 443.892C679.672 445.97 654.674 445.009 648.366 444.929C651.668 441.047 654.639 437.349 658.373 433.86C673.377 433.651 676.882 435.109 691.712 427.478C695.274 425.645 699.16 424.272 702.844 421.828C706.145 410.355 710.63 404.756 722.807 402.61Z"/><path d="M508.494 260.104C524.455 258.636 538.189 272.106 533.442 288.472C531.238 296.07 524.292 300.938 517.559 304.445C517.521 318.173 518.091 331.751 517.878 345.498L514.09 349.059L512.302 350.782C510.448 351.238 511.325 351.313 509.578 350.557C504.387 344.625 507.243 314.53 506.762 305.394L506.717 304.596C505.651 304.136 504.595 303.65 503.552 303.14C488.055 295.46 483.434 275.192 498.563 264.212C501.675 261.953 504.857 261.108 508.494 260.104Z"/><path d="M740.828 489.67C742.526 489.786 744.221 489.956 745.909 490.181C754.496 491.354 761.03 497.485 763.709 505.361C768.959 520.796 754.895 536.389 738.912 534.139C728.412 532.66 726.045 525.975 720.666 518.296C719.735 516.966 718.024 517.126 716.625 517.006C702.106 517.023 687.082 516.897 672.604 517.324C676.161 513.734 679.617 509.644 682.963 505.828C695.492 505.918 708.02 505.916 720.549 505.821C724.695 495.66 729.971 491.316 740.828 489.67Z"/><path d="M279.685 490.117C291.433 488.805 299.248 494.986 302.933 505.828C308.197 505.61 344.96 504.6 347.049 506.782C359.902 520.208 320.263 516.973 314.696 516.903L304.003 516.573C303.094 518.864 301.982 521.07 300.681 523.163C286.599 545.449 254.443 529.632 260.853 505.309C263.156 496.569 271.158 491.575 279.685 490.117Z"/><path d="M509.657 677.505C514.724 677.188 517.653 677.736 518.22 683.632C518.694 688.566 518.203 693.716 518.101 698.695C518.019 705.966 518.007 713.238 518.065 720.509C519.506 721.108 521.167 721.796 522.527 722.564C527.985 725.715 531.913 730.965 533.395 737.09C536.468 750.14 527.665 760.418 515.136 762.958C510.58 763.145 507.292 762.829 503.116 760.834C497.839 758.329 493.799 753.796 491.914 748.267C487.587 735.174 494.637 725.396 506.94 721.283C506.911 709.672 506.29 691.862 507.875 680.011C507.984 679.197 509.067 678.122 509.657 677.505Z"/></svg>