<?xml version="1.0" encoding="utf-8" ?><svg xmlns="http://www.w3.org/2000/svg" xmlns:xlink="http://www.w3.org/1999/xlink" width="1024" height="1024" viewBox="0 0 1024 1024"><path d="M505.092 175.177C690.596 171.546 844.178 318.473 848.763 503.956C853.348 689.439 707.213 843.774 521.755 849.313C334.945 854.892 179.237 707.457 174.619 520.62C170 333.783 318.234 178.835 505.092 175.177Z"/><path fill="#E2E2E1" d="M439.038 404.262C449.753 404.117 460.469 404.072 471.186 404.127C472.096 411.382 473.511 416.853 477.451 423.183C483.081 432.313 492.174 438.769 502.65 441.075C513.426 443.486 524.718 441.451 533.974 435.431C546.445 427.321 549.864 417.768 552.794 404.123L587.94 404.453L587.932 645.501L519.211 645.482C518.986 641.147 519.103 635.821 519.082 631.412C519.24 609.057 519.238 586.7 519.077 564.345L519.03 543.745C519.036 537.863 520.817 527.47 512.235 526.925C503.108 526.347 504.142 538.576 504.276 544.632C504.462 553.034 504.451 561.411 504.458 569.816L504.425 645.494L436.973 645.224C436.968 624.071 436.613 405.652 437.471 404.424L439.038 404.262Z"/><path fill="#E2E2E1" d="M511.516 225.805C512.328 226.196 513.043 226.539 513.726 227.15C560.317 268.867 580.727 329.873 586.941 390.504L550.951 390.566C545.133 371.976 532.236 363.047 513.456 360.93C491.569 361.081 480.445 371.214 472.119 390.573L436.902 390.478C441.617 339.126 455.976 291.93 488.341 250.825C495.783 241.373 502.927 234.206 511.516 225.805Z"/><path fill="#E2E2E1" d="M421.885 543.954C423.565 545.704 422.689 662.732 422.69 677.399L374.814 677.261C374.222 673.712 372.632 668.091 371.721 664.452C366.17 644.547 360.972 624.544 356.131 604.454C371.229 589.918 386.927 576.154 402.232 561.849C408.689 555.813 415.087 549.599 421.885 543.954Z"/><path fill="#E2E2E1" d="M601.944 543.211C604.773 544.755 619.016 558.285 622.331 561.341L668.683 604.157C666.847 610.073 664.994 618.109 663.399 624.236L653.44 662.335L649.273 676.991L602.158 676.991C602.435 632.398 602.363 587.803 601.944 543.211Z"/><path fill="#E2E2E1" d="M451.235 735.965C492.021 736.462 532.811 736.444 573.596 735.911C574.455 739.553 579.875 759.2 579.496 761.35C578.034 762.189 576.504 761.916 574.75 761.875C531.537 762.118 488.322 761.975 445.112 761.446C447.099 752.94 449.14 744.446 451.235 735.965Z"/><path fill="#E2E2E1" d="M461.952 691.511C495.38 691.345 528.808 691.35 562.235 691.526C564.177 700.937 567.093 711.961 569.4 721.405L563.086 721.49C527.423 721.333 490.648 721.945 455.11 721.178C457.27 711.294 459.811 701.474 461.952 691.511Z"/><path fill="#E2E2E1" d="M711.384 284.228C720.87 282.615 730.49 286.225 736.574 293.679C742.657 301.133 744.265 311.281 740.784 320.251C737.303 329.22 729.27 335.627 719.751 337.026C705.261 339.155 691.757 329.228 689.465 314.763C687.173 300.299 696.947 286.683 711.384 284.228Z"/><path fill="#E2E2E1" d="M306.034 283.752C320.628 282.718 333.327 293.643 334.486 308.227C335.644 322.812 324.828 335.604 310.254 336.887C295.503 338.185 282.521 327.209 281.349 312.447C280.177 297.685 291.263 284.798 306.034 283.752Z"/><path fill="#E2E2E1" d="M508.833 375.179C523.381 373.612 536.431 384.171 537.934 398.726C539.437 413.281 528.821 426.284 514.26 427.723C499.789 429.153 486.884 418.617 485.39 404.152C483.896 389.688 494.375 376.737 508.833 375.179Z"/><path fill="#E2E2E1" d="M711.713 690.757C725.879 688.186 739.458 697.553 742.087 711.709C744.715 725.866 735.403 739.482 721.258 742.168C707.031 744.869 693.319 735.492 690.675 721.254C688.032 707.017 697.465 693.343 711.713 690.757Z"/><path fill="#E2E2E1" d="M303.077 691.189C317.279 689.108 330.487 698.913 332.606 713.11C334.724 727.307 324.954 740.541 310.763 742.697C296.518 744.862 283.224 735.047 281.097 720.796C278.971 706.546 288.821 693.278 303.077 691.189Z"/><path fill="#E2E2E1" d="M303.339 449.234C317.477 446.63 331.025 456.053 333.503 470.213C335.981 484.374 326.438 497.838 312.256 500.189C298.251 502.511 284.992 493.113 282.546 479.13C280.099 465.147 289.378 451.805 303.339 449.234Z"/><path fill="#E2E2E1" d="M713.497 449.763C727.488 448.076 740.205 458.031 741.929 472.017C743.653 486.004 733.733 498.748 719.751 500.509C705.715 502.276 692.913 492.311 691.183 478.271C689.453 464.231 699.453 451.455 713.497 449.763Z"/><path fill="#E2E2E1" d="M664.409 564.883C668.508 567.944 680.951 580.488 685.124 584.626C697.246 596.643 710.026 609.036 721.68 621.458C722.281 628.383 722.038 635.864 722.028 642.858L721.989 676.28L714.875 676.095C713.356 676.104 713.011 676.063 711.504 675.823C711.247 675.518 710.99 675.213 710.733 674.908C710.178 664.209 710.456 635.21 710.462 626.155C694.056 608.504 672.48 590.871 656.702 572.636C659.462 569.586 661.374 567.649 664.409 564.883Z"/><path fill="#E2E2E1" d="M358.6 565.867C361.813 567.616 364.606 570.903 367.011 573.619C350.157 590.704 330.504 608.035 313.007 624.837C312.709 641.233 313.042 657.927 312.603 674.344C312.549 676.365 312.569 676.507 311.464 677.479L301.51 677.543L301.503 619.834C319.304 603.494 342.109 582.852 358.6 565.867Z"/><path fill="#E2E2E1" d="M581.341 659.75L587.489 659.599L587.493 676.603C581.266 677.142 571.305 676.975 564.791 676.966C552.099 676.956 539.408 676.854 526.717 676.661L519.291 676.662C519.145 671.026 519.141 665.388 519.278 659.752C539.964 660.122 560.655 660.122 581.341 659.75Z"/><path fill="#E2E2E1" d="M498.099 659.764L504.338 659.602C504.398 665.193 504.327 670.892 504.308 676.493L443.52 676.487L436.923 676.477L436.89 659.914L498.099 659.764Z"/><path fill="#E2E2E1" d="M602.149 467.134C626.093 466.297 654.386 467.217 678.672 467.352C678.482 471.293 678.496 475.641 678.425 479.617C655.341 480.565 625.126 480.297 602.023 479.624C602.008 475.461 602.05 471.297 602.149 467.134Z"/><path fill="#E2E2E1" d="M302.445 350.514L313.492 350.467C313.54 378.294 314.062 407.522 313.469 435.212L302.467 435.41C301.937 407.498 302.335 378.518 302.445 350.514Z"/><path fill="#E2E2E1" d="M710.511 350.905C714.239 350.954 717.968 350.969 721.697 350.95L721.68 436.394L710.51 436.37L710.511 350.905Z"/><path fill="#E2E2E1" d="M419.866 466.248L421.711 466.272C423.363 468.388 422.617 476.658 422.55 479.705L351.875 477.96L347.438 477.779L347.449 467.414C371.585 466.896 395.725 466.507 419.866 466.248Z"/></svg>