<?xml version="1.0" encoding="utf-8" ?><svg xmlns="http://www.w3.org/2000/svg" xmlns:xlink="http://www.w3.org/1999/xlink" width="1024" height="1024" viewBox="0 0 1024 1024"><path fill="#E2E2E2" d="M0 0L1024 0L1024 1024L0 1024L0 0Z"/><path d="M510.255 209.556C512.415 209.457 514.219 209.337 516.134 210.424C525.501 215.744 535.271 222.745 544.196 228.789L600.1 266.658C604.887 262.65 608.74 260.321 614.817 258.433C625.888 254.934 637.9 256.029 648.155 261.472C670.149 273.403 675.617 299.621 663.817 320.98C680.11 335.277 696.246 349.751 712.224 364.399C723.326 356.565 739.204 354.92 751.816 359.83C762.626 364.015 771.316 372.344 775.956 382.967C785.238 404.241 776.148 427.597 755.718 438.138C753.306 439.382 750.44 440.48 747.924 441.52C748.226 467.458 748.032 493.727 748.01 519.685C750.336 520.047 751.908 520.801 754.028 521.763C775.183 531.503 786.166 558.947 775.436 580.105C765.919 598.872 745.813 607.404 725.643 602.143C721.02 600.938 717.259 599.002 713.054 596.766C697.409 611.173 681.074 625.522 665.267 639.88C672.84 654.507 673.389 668.399 664.886 682.968C653.491 702.493 625.395 709.884 606.108 697.335C586.74 715.189 568.975 731.75 550.055 750.192C564.017 779.496 546.31 810.853 513.529 812.977C506.713 813.178 501.017 812.2 494.693 809.544C484.539 805.239 476.494 797.103 472.304 786.902C467.273 774.36 468.854 761.994 474.105 749.834C455.573 731.334 437.491 714.669 418.449 696.863C405.613 703.971 392.403 705.637 378.709 699.59C368.584 695.237 360.664 686.955 356.767 676.646C351.786 663.629 353.154 651.864 358.744 639.441C342.693 625.193 328.143 610.765 311.548 596.545C297.582 605.807 278.465 606.449 263.939 597.616C243.85 585.4 237.289 558.127 249.927 537.977C255.946 528.555 265.495 521.942 276.432 519.621L276.494 441.551C271.914 439.839 267.646 438.063 263.467 435.411C243.74 422.892 238.891 394.546 251.397 375.327C257.676 365.965 268.056 359.059 279.146 356.981C290.891 354.781 301.641 356.922 311.468 363.464C314.958 359.642 320.295 355.542 324.191 351.892C335.094 341.676 347.252 331.953 357.905 321.565C355.796 315.485 353.01 309.305 352.676 302.816C352.084 291.361 355.631 280.136 363.132 271.483C370.744 262.726 381.577 257.425 393.162 256.787C403.996 256.065 414.671 259.688 422.828 266.855C440.457 255.628 457.874 243.018 475.388 231.628C482.804 226.804 503.2 211.474 510.255 209.556Z"/><path fill="#E2E2E2" d="M511.428 235.408C514.666 236.744 520.331 241.125 523.326 243.301C543.734 258.129 566.13 271.358 586.535 286.025C583.798 294.844 583.57 304.648 586.449 313.462C590.041 324.202 597.808 333.041 607.997 337.984C621.623 344.729 634.124 342.742 647.732 338.094C652.665 341.761 662.166 350.609 666.954 354.886L698.065 382.223C688.363 401.53 696.983 427.832 716.085 437.558C718.561 438.819 721.135 439.998 723.664 441.145C724.941 466.529 723.127 494.378 724.158 520.076C722.577 520.596 721.01 521.155 719.457 521.754C709.554 525.754 701.668 533.557 697.564 543.418C692.245 556.022 693.242 565.568 698.124 577.739C694.591 580.467 688.041 586.87 684.527 590.113C672.513 601.2 660.674 612.456 648.656 623.563C645.957 622.402 643.346 621.214 640.558 620.352C613.257 611.908 585.192 632.041 584.777 660.695C584.665 668.478 586.613 673.189 588.962 680.406C578.781 689.917 568.907 699.338 558.861 708.98C550.432 717.07 541.683 724.238 533.511 732.795C525.973 728.245 521.5 727.844 512.841 726.609C505.167 726.21 497.352 729.492 490.504 732.5C486.53 728.078 473.615 716.628 468.671 712.172C457.712 702.296 445.638 689.896 434.519 680.683C435.371 679.191 436.1 677.632 436.699 676.022C440.795 665.036 440.258 652.859 435.211 642.276C424.712 619.751 397.795 612.883 375.992 623.093C360.011 607.768 343.075 593.143 327.113 577.444C327.431 576.706 327.735 575.961 328.024 575.211C331.993 564.992 331.732 553.614 327.299 543.588C321.705 531.163 312.897 524.454 300.538 519.68C299.723 494.918 300.107 466.458 300.365 441.41C302.541 440.544 304.688 439.609 306.804 438.605C328.064 428.306 337.609 403.33 327.216 381.887C340.954 367.961 360.983 351.449 375.954 337.988C386.812 342.618 397.657 344.56 409.235 340.895C419.87 337.497 428.735 330.042 433.906 320.147C439.117 310.046 439.784 297.293 436.364 286.551C440.714 283.36 445.675 280.404 450.106 277.227C470.181 262.837 491.299 249.653 511.428 235.408Z"/><path d="M506.981 335.226C515.343 335.138 521.78 335.398 529.945 337.6C536.75 339.373 543.226 342.23 549.123 346.061C557.161 351.345 574.099 367.007 581.969 374.032C589.866 381.081 605.503 393.983 612.255 401.247C616.998 406.333 621.141 411.948 624.599 417.982C643.163 450.858 642.583 504.393 615.832 532.942C604.336 545.209 593.277 557.837 582.094 570.389C568.532 585.716 554.876 600.962 541.128 616.123C536.33 621.439 521.14 639.31 516.689 641.791C512.853 642.083 508.592 642.272 505.723 639.478C501.26 635.131 497.071 630.299 492.669 625.875C479.639 612.783 467.457 598.93 454.883 585.401L421.168 549.413C414.53 542.272 405.134 533.008 400.129 524.779C377.712 487.934 381.579 435.872 409.753 403.134C419.826 391.428 436.809 378.542 448.787 368.108C467.689 351.643 480.409 336.992 506.981 335.226Z"/><path fill="#E2E2E2" d="M509.577 358.208C510.01 358.165 510.444 358.129 510.879 358.101C531.108 356.827 546.444 373.79 560.3 386.162L586.808 409.402C604.465 424.871 612.136 439.456 613.738 463.347C614.738 478.274 612.981 493.177 606.071 506.656C600.891 516.762 590.822 524.942 583.306 533.734C560.855 559.995 536.731 584.859 513.876 610.744L513.001 611.652L512.061 611.386C508.509 608.089 505.979 604.793 502.654 601.428C491.152 589.785 480.584 577.314 469.423 565.387L438.922 533.174C433.123 527.051 424.214 518.23 419.751 511.242C405.043 488.212 406.764 440.427 426.291 420.723C445.802 401.035 469.204 381.005 491.04 363.842C494.997 360.733 504.557 358.608 509.577 358.208Z"/><path d="M507.72 401.483C545.214 399.349 577.359 427.969 579.577 465.458C581.794 502.947 553.246 535.156 515.762 537.457C478.16 539.765 445.827 511.108 443.603 473.5C441.378 435.893 470.107 403.624 507.72 401.483Z"/><path fill="#E2E2E2" d="M505.788 425.703C530.188 422.408 552.642 439.511 555.946 463.911C559.25 488.31 542.153 510.769 517.755 514.081C493.346 517.395 470.873 500.289 467.568 475.878C464.262 451.467 481.376 429 505.788 425.703Z"/><path d="M508.639 646.655C510.881 646.565 513.126 646.556 515.369 646.628C518.281 646.739 521.315 647.715 523.222 650.046C526.364 653.887 525.094 704.826 524.814 713.132C522.39 716.348 520.9 717.998 516.963 718.603C512.882 718.809 507.652 719.602 503.938 717.47C502.37 716.569 501.612 715.621 501.168 713.848C499.509 707.217 498.704 655.107 501.56 650.601C503.104 648.164 506.029 647.349 508.639 646.655Z"/><path d="M511.383 255.574C513.63 255.624 515.536 255.966 517.539 257.04C520.441 258.596 522.969 261.345 523.892 264.55C525.789 271.135 526.05 312.981 523.07 318.456C520.976 322.303 517.691 324.057 513.662 325.352C510.728 325.098 508.102 324.595 505.506 323.129C503.01 321.72 501.13 319.594 500.387 316.794C498.67 310.328 498.276 267.145 501.069 262.381C503.347 258.497 507.197 256.692 511.383 255.574Z"/><path fill="#59D3DD" d="M285.647 377.005C297.95 375.981 308.748 385.138 309.746 397.444C310.745 409.749 301.564 420.527 289.257 421.499C276.986 422.469 266.247 413.322 265.252 401.053C264.257 388.785 273.381 378.026 285.647 377.005Z"/><path fill="#59D3DD" d="M282.902 538.715C295.022 536.68 306.497 544.854 308.535 556.973C310.573 569.093 302.402 580.57 290.283 582.611C278.16 584.653 266.678 576.478 264.64 564.355C262.601 552.232 270.778 540.751 282.902 538.715Z"/><path fill="#59D3DD" d="M506.904 748.806C518.857 746.045 530.779 753.516 533.508 765.477C536.236 777.437 528.733 789.339 516.765 792.035C504.843 794.721 492.995 787.253 490.277 775.338C487.56 763.423 494.996 751.556 506.904 748.806Z"/><path fill="#59D3DD" d="M732.592 378.161C744.416 375.804 755.92 383.454 758.319 395.27C760.718 407.086 753.109 418.617 741.302 421.058C729.435 423.512 717.833 415.856 715.422 403.98C713.011 392.105 720.708 380.53 732.592 378.161Z"/><path fill="#59D3DD" d="M625.229 639.498C637.194 638.259 647.902 646.946 649.158 658.909C650.414 670.873 641.742 681.593 629.78 682.865C617.795 684.14 607.049 675.448 605.791 663.461C604.533 651.473 613.24 640.74 625.229 639.498Z"/><path fill="#59D3DD" d="M623.202 277.875C634.898 275.532 646.302 283.035 648.78 294.703C651.258 306.37 643.889 317.86 632.25 320.474C624.601 322.192 616.618 319.665 611.351 313.858C606.083 308.051 604.344 299.861 606.796 292.415C609.249 284.968 615.515 279.415 623.202 277.875Z"/><path fill="#59D3DD" d="M734.48 539.71C746.33 538.185 757.188 546.514 758.786 558.354C760.384 570.195 752.122 581.104 740.292 582.775C728.358 584.461 717.332 576.111 715.72 564.167C714.108 552.223 722.526 541.249 734.48 539.71Z"/><path fill="#59D3DD" d="M393.041 278.344C404.833 276.798 415.651 285.085 417.23 296.873C418.809 308.66 410.552 319.501 398.769 321.113C386.94 322.731 376.046 314.434 374.461 302.6C372.876 290.767 381.203 279.896 393.041 278.344Z"/><path fill="#59D3DD" d="M394.601 639.165C406.433 638.322 416.715 647.216 417.583 659.047C418.452 670.877 409.58 681.178 397.752 682.073C385.887 682.97 375.547 674.064 374.676 662.198C373.804 650.331 382.732 640.011 394.601 639.165Z"/></svg>